<?xml version="1.0" encoding="UTF-8"?>
<svg width="50px" height="50px" viewBox="0 0 50 50" version="1.1" xmlns="http://www.w3.org/2000/svg" xmlns:xlink="http://www.w3.org/1999/xlink">
    <!-- Generator: Sketch 41.2 (35397) - http://www.bohemiancoding.com/sketch -->
    <title>Icn-Settings</title>
    <desc>Created with Sketch.</desc>
    <defs></defs>
    <g id="UI-Guides" stroke="none" stroke-width="1" fill-rule="evenodd">
        <g id="Iconography" transform="translate(-246.000000, -229.000000)">
            <g id="Icn-Settings" transform="translate(246.000000, 229.000000)">
                <path d="M44.3040816,23.31 C42.6285714,24.9844898 39.9612245,25.8691837 36.5897959,25.8691837 C35.1336735,25.8691837 33.5459184,25.7008163 32,25.3804082 C31.6408163,25.3089796 31.2663265,25.4314286 31.0244898,25.71 L13.7204082,45.5783673 C12.4928571,46.8079592 10.8755102,47.4844898 9.16632653,47.4844898 C7.45510204,47.4844898 5.84693878,46.8191837 4.6377551,45.61 C3.43061224,44.4028571 2.76632653,42.7957143 2.76632653,41.082449 C2.76632653,39.3712245 3.43061224,37.7640816 4.58673469,36.604898 L24.5397959,19.2232653 C24.8163265,18.982449 24.9418367,18.61 24.8683673,18.2497959 C24.4622449,16.2559184 23.4071429,9.47530612 26.9397959,5.94469388 C29.2581633,3.62530612 32.3408163,2.34877551 35.6214286,2.34877551 C36.1897959,2.34877551 36.7602041,2.38857143 37.322449,2.46714286 L32.1357143,7.65387755 C31.994898,7.79469388 31.8989796,7.97326531 31.8581633,8.16816327 L30.7173469,13.6753061 C30.6469388,14.0120408 30.7520408,14.3610204 30.994898,14.6038776 L35.644898,19.2528571 C35.8877551,19.4957143 36.2377551,19.6018367 36.5734694,19.5304082 L42.0795918,18.3906122 C42.2744898,18.3497959 42.4540816,18.2538776 42.5938776,18.1130612 L47.7826531,12.9253061 C48.3142857,16.7355102 47.0408163,20.5722449 44.3040816,23.31 M49.6673469,11.8304082 C49.544898,11.2273469 49.1040816,10.7406122 48.5142857,10.56 C47.9357143,10.3844898 47.2765306,10.5487755 46.844898,10.9773469 L41.3673469,16.4538776 L36.6979592,17.4212245 L32.827551,13.5497959 L33.794898,8.88142857 L39.2734694,3.40183673 C39.7102041,2.96306122 39.8683673,2.32326531 39.6887755,1.7355102 C39.5091837,1.14469388 39.0204082,0.701836735 38.4132653,0.581428571 C37.494898,0.399795918 36.5561224,0.307959184 35.6214286,0.307959184 C31.794898,0.307959184 28.2,1.79673469 25.4969388,4.50081633 C21.6193878,8.37734694 22.1857143,14.8977551 22.7561224,18.0702041 L3.19489796,35.1130612 C1.60204082,36.7059184 0.724489796,38.8263265 0.725510204,41.0834694 C0.725510204,43.3406122 1.60204082,45.4610204 3.19489796,47.0538776 C4.78877551,48.6477551 6.91020408,49.5253061 9.16632653,49.5253061 C11.4214286,49.5253061 13.5520408,48.6355102 15.2122449,46.9702041 L32.1765306,27.4946939 C33.6683673,27.7671429 35.1826531,27.91 36.5897959,27.91 C40.5142857,27.91 43.6816327,26.8181633 45.7469388,24.7528571 C49.1326531,21.3671429 50.5979592,16.537551 49.6673469,11.8304082" id="Fill-1100"></path>
                <path d="M6.87771129,38.8789507 L6.87605874,38.8789507 C5.70770514,40.052262 5.70770514,41.9493906 6.87771129,43.1210493 C8.04937,44.292708 9.94649862,44.292708 11.1198099,43.1227018 L11.1214624,43.1210493 C12.2914686,41.9493906 12.2914686,40.0489569 11.1214624,38.8772982 C9.94980373,37.707292 8.04937,37.707292 6.87771129,38.8789507" id="Fill-1101"></path>
            </g>
        </g>
    </g>
</svg>