<?xml version="1.0" encoding="UTF-8"?>
<svg width="50px" height="44px" viewBox="0 0 50 44" version="1.1" xmlns="http://www.w3.org/2000/svg" xmlns:xlink="http://www.w3.org/1999/xlink">
    <!-- Generator: Sketch 41.2 (35397) - http://www.bohemiancoding.com/sketch -->
    <title>Icn-Hair-Dryer</title>
    <desc>Created with Sketch.</desc>
    <defs></defs>
    <g id="UI-Guides" stroke="none" stroke-width="1" fill="none" fill-rule="evenodd">
        <g id="Iconography" transform="translate(-605.000000, -437.000000)">
            <path d="M615.000419,439.536628 C615.000419,439.536628 634.216242,437.194866 642.911676,437.005622 C652.042984,436.806891 654.90479,441.913092 654.997984,446.613288 C655.091178,451.313483 651.937286,455.607917 648.833977,455.607917 C645.370687,455.607917 645.225826,458.668463 645.225826,458.668463 L642.911676,471.687506 C642.911676,471.687506 642.34259,475.719733 639.560681,475.719733 L639.040771,475.719733 L638.194528,480.034722 C638.194528,480.034722 638.036377,481.027381 637.010132,481.027381 C635.983887,481.027381 636.148926,480.034722 636.148926,480.034722 L636.622559,475.719733 L636.044922,475.719733 C634.330566,475.719733 633.570569,474.316901 634.095345,471.687506 C634.445081,469.935156 635.811498,463.62566 635.91701,463.112989 C636.022522,462.600318 634.968018,462.515174 635.041504,462.012245 C635.11499,461.509315 635.291543,460.602673 635.360962,460.215675 C635.453319,459.700798 636.494546,459.993952 636.566202,459.531157 C636.612911,459.229477 636.654569,458.940989 636.690323,458.668463 C637.177195,454.957448 634.970471,455.096198 629.85527,454.476081 C624.740068,453.855963 615.000419,452.536628 615.000419,452.536628 C615.000419,452.536628 609.871857,453.537636 608.120183,454.24195 C606.340328,454.957594 605.05151,454.592292 605.016874,452.536628 C604.982238,450.480963 605.010644,441.555182 605.016874,439.536628 C605.023104,437.518073 606.683152,437.328131 608.120183,437.700202 C609.557213,438.072272 615.000419,439.536628 615.000419,439.536628 Z M615.000419,441.353431 C615.000419,441.353431 634.216242,439.194866 642.911676,439.005622 C644.773434,438.965103 645.393433,439.005622 646.991333,439.394813 C646.991333,439.394813 646.991333,453.673499 646.991333,453.673499 C643.814453,453.673499 643.225826,458.668463 643.225826,458.668463 L640.645691,471.849037 C640.645691,471.849037 640.418823,473.719733 639.003662,473.719733 C637.588501,473.719733 638.927675,473.719733 637.271729,473.719733 C635.615782,473.719733 635.570569,473.316901 636.095345,470.687506 C636.620122,468.058112 638.305574,462.00431 638.792725,458.291175 C639.279597,454.58016 636.897916,453.507484 631.782715,452.887367 C626.667513,452.267249 615.000419,450.975013 615.000419,450.975013 L615.000419,441.353431 Z M648.000557,440.49902 C648.000249,440.222698 648.231934,439.998695 648.5,439.998695 C648.776142,439.998695 649.00025,440.223476 649.000557,440.49902 L649.01458,453.102861 C649.014887,453.379184 648.783203,453.603187 648.515137,453.603187 C648.238994,453.603187 648.014887,453.378406 648.01458,453.102861 L648.000557,440.49902 Z M649.998422,441.501943 C649.999294,441.224007 650.231934,440.998695 650.5,440.998695 C650.776142,440.998695 650.999278,441.229023 650.998422,441.501943 L650.963736,452.565026 C650.962865,452.842963 650.730225,453.068275 650.462158,453.068275 C650.186016,453.068275 649.96288,452.837946 649.963736,452.565026 L649.998422,441.501943 Z M652.00446,443.506244 C652.001997,443.225932 652.231934,442.998695 652.5,442.998695 C652.776142,442.998695 653.001924,443.217647 653.00446,443.506244 L653.057552,449.548519 C653.060015,449.82883 652.830078,450.056068 652.562012,450.056068 C652.285869,450.056068 652.060088,449.837116 652.057552,449.548519 L652.00446,443.506244 Z" id="Icn-Hair-Dryer"></path>
        </g>
    </g>
</svg>