<?xml version="1.0" encoding="UTF-8"?>
<svg width="36px" height="50px" viewBox="0 0 36 50" version="1.1" xmlns="http://www.w3.org/2000/svg" xmlns:xlink="http://www.w3.org/1999/xlink">
    <!-- Generator: Sketch 41.2 (35397) - http://www.bohemiancoding.com/sketch -->
    <title>Icn-Fan</title>
    <desc>Created with Sketch.</desc>
    <defs></defs>
    <g id="UI-Guides" stroke="none" stroke-width="1" fill="none" fill-rule="evenodd">
        <g id="Iconography" transform="translate(-372.000000, -436.000000)" fill="">
            <path d="M392.145575,471.873451 C401.075273,470.812828 408,463.215092 408,454 C408,444.058875 399.941125,436 390,436 C380.058875,436 372,444.058875 372,454 C372,463.215092 378.924727,470.812828 387.854425,471.873451 L387,477 L393,477 L392.145575,471.873451 Z M390,470 C398.836556,470 406,462.836556 406,454 C406,445.163444 398.836556,438 390,438 C381.163444,438 374,445.163444 374,454 C374,462.836556 381.163444,470 390,470 Z M393.50198,449.656946 C385.68527,446.516497 386.156845,453.268487 384.781117,450.678097 C383.40539,448.087707 384.659427,443.249651 387.722624,441.409075 C390.785821,439.568498 395.313088,439.659392 397.451122,442.666568 C399.589155,445.673744 397.500471,450.753189 393.50198,449.656946 Z M384.234281,453.653189 C385.857764,461.919244 391.263622,457.846351 389.840413,460.410961 C388.417204,462.97557 383.676671,464.558841 380.464697,462.992277 C377.252724,461.425714 374.863227,457.579324 376.2208,454.148393 C377.578374,450.717462 382.975933,449.702715 384.234281,453.653189 Z M392.12772,459.065699 C398.755784,453.866454 392.672601,450.898854 395.603808,451.002634 C398.535016,451.106414 402.097877,454.611471 402.160264,458.184565 C402.222652,461.757659 399.880301,465.632941 396.206994,465.980944 C392.533687,466.328948 389.1791,461.980372 392.12772,459.065699 Z M390,458 C392.209139,458 394,456.209139 394,454 C394,451.790861 392.209139,450 390,450 C387.790861,450 386,451.790861 386,454 C386,456.209139 387.790861,458 390,458 Z M378.711249,478.886695 C379.070158,477.844702 380.256339,477 381.353506,477 L399.168715,477 C400.269085,477 401.452751,477.846698 401.810972,478.886695 L402.955416,482.209274 C403.676531,484.302834 402.46699,486 400.264272,486 L380.257949,486 C378.050556,486 376.844197,484.307169 377.566805,482.209274 L378.711249,478.886695 Z M394,483 C394,482.447715 394.437881,482 395.002929,482 L399.997071,482 C400.550973,482 401,482.443865 401,483 C401,483.552285 400.562119,484 399.997071,484 L395.002929,484 C394.449027,484 394,483.556135 394,483 Z" id="Icn-Fan"></path>
        </g>
    </g>
</svg>