<?xml version="1.0" encoding="UTF-8"?>
<svg width="46px" height="50px" viewBox="0 0 46 50" version="1.1" xmlns="http://www.w3.org/2000/svg" xmlns:xlink="http://www.w3.org/1999/xlink">
    <!-- Generator: Sketch 41.2 (35397) - http://www.bohemiancoding.com/sketch -->
    <title>Icn-Washing-Machine</title>
    <desc>Created with Sketch.</desc>
    <defs></defs>
    <g id="UI-Guides" stroke="none" stroke-width="1" fill-rule="evenodd">
        <g id="Iconography" transform="translate(-727.000000, -434.000000)">
            <path d="M727,436.996532 C727,435.341593 728.351781,434 730.000444,434 L769.999556,434 C771.656655,434 773,435.337379 773,436.996532 L773,481.003468 C773,482.658407 771.648219,484 769.999556,484 L730.000444,484 C728.343345,484 727,482.662621 727,481.003468 L727,436.996532 Z M729,437.997392 C729,436.894263 729.89666,436 730.997492,436 L769.002508,436 C770.105692,436 771,436.895858 771,437.997392 L771,445 L729,445 L729,437.997392 Z M729,447 L771,447 L771,479.00008 C771,480.104605 770.10334,481 769.002508,481 L730.997492,481 C729.894308,481 729,480.108059 729,479.00008 L729,447 Z M732,439 L740,439 L740,442 L732,442 L732,439 Z M766.5,442 C767.328427,442 768,441.328427 768,440.5 C768,439.671573 767.328427,439 766.5,439 C765.671573,439 765,439.671573 765,440.5 C765,441.328427 765.671573,442 766.5,442 Z M761.5,442 C762.328427,442 763,441.328427 763,440.5 C763,439.671573 762.328427,439 761.5,439 C760.671573,439 760,439.671573 760,440.5 C760,441.328427 760.671573,442 761.5,442 Z M750,474 C756.075132,474 761,469.075132 761,463 C761,456.924868 756.075132,452 750,452 C743.924868,452 739,456.924868 739,463 C739,469.075132 743.924868,474 750,474 Z M750,471.903456 C754.970563,471.903456 759,467.874018 759,462.903456 C759,460.725814 758.130737,462.899414 754.009766,462.903456 C749.888794,462.907497 749.500928,459.973022 745.995728,459.973022 C743.057739,459.973022 741,461.819336 741,462.903456 C741,467.873973 745.029437,471.903456 750,471.903456 Z" id="Icn-Washing-Machine"></path>
        </g>
    </g>
</svg>