<?xml version="1.0" encoding="UTF-8"?>
<svg width="50px" height="46px" viewBox="0 0 50 46" version="1.1" xmlns="http://www.w3.org/2000/svg" xmlns:xlink="http://www.w3.org/1999/xlink">
    <!-- Generator: Sketch 41.2 (35397) - http://www.bohemiancoding.com/sketch -->
    <title>Icn-Heart</title>
    <desc>Created with Sketch.</desc>
    <defs></defs>
    <g id="UI-Guides" stroke="none" stroke-width="1" fill-rule="evenodd">
        <g id="Iconography" transform="translate(-127.000000, -436.000000)">
            <path d="M151.995945,442.750271 C149.228305,439.7527 147.782644,436 140.07279,436 C132.305201,436 127,442.217591 127,449.859652 C127,452.868196 127.962084,455.730104 129.793998,458.147114 L149.337794,480.891747 C149.937956,481.590016 150.814882,481.994015 151.750608,482 C152.684307,482 153.559205,481.606974 154.163423,480.92267 L173.716342,458.751616 C175.834144,456.263781 177,453.105608 177,449.859652 C177,442.217591 171.692822,436 163.924169,436 C157.413625,436 154.765612,439.7527 151.995945,442.750271 Z M152.632603,479.559049 C152.413625,479.805439 152.097324,479.948085 151.762774,479.948085 L151.762774,480.945613 L151.756691,479.948085 C151.420114,479.94609 151.102798,479.799454 150.885848,479.547079 L131.408962,456.883246 C129.85077,454.828338 129.027575,452.379408 129.027575,449.802793 C129.027575,443.260008 134.603406,437.938197 140.07279,437.938197 C146.768856,437.938197 148.807583,441.773691 151.18897,444.855055 C151.380576,445.102442 151.679643,445.248081 151.995945,445.248081 C152.31326,445.248081 152.611314,445.103439 152.80292,444.855055 C155.186334,441.773691 158.427413,437.938197 163.49635,437.938197 C169.579075,437.938197 174.972425,443.260008 174.972425,449.802793 C174.972425,452.580908 173.973844,455.284209 172.173358,457.400963 L152.632603,479.559049 Z M163.506042,445.96915 C170.09375,448.001978 170.466473,453.510717 171.660584,450.229924 C172.854695,446.94913 171.079506,443.010054 167.021513,440.990291 C162.963519,438.970528 157.941859,441.124215 156.918335,443.936323 C155.894811,446.748432 156.918335,443.936323 163.506042,445.96915 Z" id="Icn-Heart"></path>
        </g>
    </g>
</svg>