<?xml version="1.0" encoding="UTF-8"?>
<svg width="48px" height="50px" viewBox="0 0 48 50" version="1.1" xmlns="http://www.w3.org/2000/svg" xmlns:xlink="http://www.w3.org/1999/xlink">
    <!-- Generator: Sketch 41.2 (35397) - http://www.bohemiancoding.com/sketch -->
    <title>Icn-Night-time</title>
    <desc>Created with Sketch.</desc>
    <defs></defs>
    <g id="UI-Guides" stroke="none" stroke-width="1" fill="none" fill-rule="evenodd">
        <g id="Iconography" transform="translate(-486.000000, -228.000000)">
            <g id="Icn-Night-time" transform="translate(486.000000, 228.000000)">
                <path d="M45.5987,28.2442 C45.0167,39.2952 35.4747,47.9512 23.8727,47.9512 C23.3607,47.9512 22.8457,47.9342 22.3297,47.8982 C16.0237,47.4672 11.1437,44.5102 7.1417,38.6472 C9.2187,39.1962 11.3047,39.4732 13.3707,39.4732 C21.2757,39.4732 28.5377,35.3932 32.7957,28.5582 C36.6027,22.4472 37.3237,15.0562 34.8647,8.3512 C42.0597,12.5672 46.0387,19.8632 45.5987,28.2442 M33.8667,5.5602 C33.7227,5.4912 33.5647,5.4392 33.4047,5.4642 L32.9397,5.4792 C32.6007,5.4922 32.2927,5.6762 32.1187,5.9662 C31.9457,6.2572 31.9307,6.6152 32.0797,6.9192 C35.3967,13.6732 35.0387,21.1752 31.0977,27.5012 C27.2077,33.7452 20.5807,37.4732 13.3707,37.4732 C10.6647,37.4732 7.9137,36.9522 5.1967,35.9252 C4.8037,35.7792 4.3547,35.8902 4.0807,36.2132 C3.8067,36.5342 3.7657,36.9942 3.9767,37.3602 C8.5997,45.3772 14.3887,49.3592 22.1927,49.8942 C22.7547,49.9322 23.3147,49.9512 23.8727,49.9512 C36.5377,49.9512 46.9587,40.4632 47.5957,28.3492 C48.1167,18.4372 42.9847,9.9182 33.8667,5.5602" id="Fill-890"></path>
                <path d="M12.7603,19.5195 C13.1703,19.5115 13.5333,19.2545 13.6773,18.8715 L15.3883,14.3215 L17.0983,18.8715 C17.2423,19.2545 17.6063,19.5115 18.0163,19.5195 L23.0283,19.6135 L19.0993,22.3675 C18.7383,22.6205 18.5853,23.0795 18.7223,23.4985 L20.1853,27.9635 L15.9303,25.2245 C15.6013,25.0115 15.1783,25.0115 14.8473,25.2245 L10.5923,27.9635 L12.0533,23.4975 C12.1903,23.0795 12.0373,22.6205 11.6773,22.3685 L7.7483,19.6135 L12.7603,19.5195 Z M4.8583,18.6835 C4.6353,19.3205 4.8703,20.0385 5.4303,20.4305 L9.9223,23.5805 L8.3003,28.5375 C8.0893,29.1845 8.3283,29.8795 8.9003,30.2695 C9.4193,30.6225 10.1373,30.6325 10.6713,30.2925 L15.3893,27.2545 L20.1033,30.2905 C20.3613,30.4575 20.6623,30.5455 20.9753,30.5455 C21.2993,30.5455 21.6113,30.4505 21.8793,30.2675 C22.4463,29.8815 22.6873,29.1875 22.4773,28.5375 L20.8543,23.5805 L25.3473,20.4305 C25.9063,20.0375 26.1413,19.3195 25.9203,18.6895 C25.7103,18.0775 25.1233,17.6565 24.4553,17.6395 L18.7323,17.5325 L16.8703,12.5825 C16.6463,11.9755 16.0513,11.5685 15.3893,11.5685 C14.7293,11.5685 14.1343,11.9735 13.9073,12.5775 L12.0443,17.5325 L6.3153,17.6395 C5.6523,17.6555 5.0653,18.0785 4.8583,18.6835 L4.8583,18.6835 Z" id="Fill-891"></path>
                <path d="M7.5221,11.0594 C7.7351,11.2084 7.9871,11.2864 8.2491,11.2864 C8.5311,11.2864 8.7981,11.1964 8.9981,11.0424 C9.4381,10.7224 9.6271,10.1594 9.4681,9.6384 L8.7911,7.4224 L10.6561,6.0234 C11.0911,5.6984 11.2731,5.1324 11.1071,4.6094 C10.9421,4.0984 10.4701,3.7444 9.9181,3.7254 L7.5621,3.6794 L6.7921,1.4924 C6.6161,0.9764 6.1311,0.6294 5.5871,0.6294 C5.0421,0.6294 4.5581,0.9764 4.3841,1.4844 L3.6131,3.6794 L1.2421,3.7264 C0.7071,3.7444 0.2351,4.0974 0.0661,4.6144 C-0.0979,5.1324 0.0831,5.6994 0.5161,6.0214 L2.3841,7.4224 L1.7031,9.6474 C1.5491,10.1654 1.7401,10.7254 2.1781,11.0434 C2.6101,11.3564 3.2251,11.3594 3.6491,11.0614 L5.5871,9.7264 L7.5221,11.0594 Z" id="Fill-892"></path>
            </g>
        </g>
    </g>
</svg>