<?xml version="1.0" encoding="UTF-8"?>
<svg width="45px" height="50px" viewBox="0 0 45 50" version="1.1" xmlns="http://www.w3.org/2000/svg" xmlns:xlink="http://www.w3.org/1999/xlink">
    <!-- Generator: Sketch 41.2 (35397) - http://www.bohemiancoding.com/sketch -->
    <title>Icn-Tap</title>
    <desc>Created with Sketch.</desc>
    <defs></defs>
    <g id="UI-Guides" stroke="none" stroke-width="1" fill="none" fill-rule="evenodd">
        <g id="Iconography" transform="translate(-248.000000, -434.000000)">
            <path d="M278,460.002197 L278,452 L274.662178,452 C273.783981,450.48186 272.51814,449.216019 271,448.337822 L271,447 L272,447 L272,444.998957 C272,444.44266 271.551177,444 270.997527,444 L261.002473,444 C260.455761,444 260,444.447248 260,444.998957 L260,447 L261,447 L261,448.337822 C259.48186,449.216019 258.216019,450.48186 257.337822,452 L251,452 L251,462 L257.337822,462 C259.066869,464.989007 262.298588,467 266,467 C269.701412,467 272.933131,464.989007 274.662178,462 L278,462 L278,460.002197 C278.00013,460.002201 280.883836,460.077074 282.950195,462.173462 C285.016602,464.269897 284.985352,466.989807 284.985352,466.989807 L291.012573,466.989807 C291.012573,464.011597 290.362305,461.13269 287.738037,458.413574 C285.11377,455.694458 281.872119,454.033854 278,454 C278,454.072266 278,460.002197 278,460.002197 Z M273.418483,454 C272.606718,451.994601 271.005399,450.393282 269,449.581517 L269,447 L263,447 L263,449.581517 C260.994601,450.393282 259.393282,451.994601 258.581517,454 L251,454 L251,460 L258.581517,460 C259.768292,462.93183 262.642622,465 266,465 C269.357378,465 272.231708,462.93183 273.418483,460 L278,460 L278,454 L273.418483,454 Z M268,436 L268,434.995398 C268,434.455664 267.54809,434 266.990631,434 L265.009369,434 C264.443353,434 264,434.445655 264,434.995398 L264,436 L263.990778,436 C263.450975,436 263,436.45191 263,437.009369 L263,438.990631 C263,439.556647 263.443586,440 263.990778,440 L264,440 L264,444 L268,444 L268,440 L268.009222,440 C268.549025,440 269,439.54809 269,438.990631 L269,437.009369 C269,436.443353 268.556414,436 268.009222,436 L268,436 Z M288,484 C290.761424,484 293,481.761422 293,479 C293,475.060059 288,472 288,472 C288,472 283,475.108643 283,479 C283,481.761424 285.238576,484 288,484 Z M293,467 C293,458.715729 286.265437,452.072266 278,452 C278,452.072266 278,462.002197 278,462.002197 C278,462.002197 279.83834,461.742188 281.507023,463.389771 C283.175706,465.037354 282.988633,467 282.988633,467 L293,467 Z M250.001043,451 C250.552752,451 251,451.455761 251,452.002473 L251,461.997527 C251,462.551177 250.55734,463 250.001043,463 L248,463 L248,451 L250.001043,451 Z M269,436.905521 L278.004602,436.005061 C278.554345,435.950086 279,436.348874 279,436.91489 L279,438.896152 C279,439.453611 278.557409,439.861262 278.004602,439.805981 L269,438.905521 L269,436.905521 Z M263,436.905521 L253.995398,436.005061 C253.445655,435.950086 253,436.348874 253,436.91489 L253,438.896152 C253,439.453611 253.442591,439.861262 253.995398,439.805981 L263,438.905521 L263,436.905521 Z M283,470 L283,467 L293,467 L293,470 L283,470 Z M288.5,482 C289.880712,482 291.319214,481.180152 291.319214,479.497253 C291.319214,478.1521 290.990601,477.286987 290.496338,476.771729 C290.496338,476.771729 290.412964,478.763428 289.475285,480.373535 C288.537606,481.983643 287.119288,482 288.5,482 Z M285,468.365 L285,467 L291.005005,467 L291.005005,468.365 L285,468.365 Z" id="Icn-Tap"></path>
        </g>
    </g>
</svg>