<?xml version="1.0" encoding="UTF-8"?>
<svg width="50px" height="50px" viewBox="0 0 50 50" version="1.1" xmlns="http://www.w3.org/2000/svg" xmlns:xlink="http://www.w3.org/1999/xlink">
    <!-- Generator: Sketch 41.2 (35397) - http://www.bohemiancoding.com/sketch -->
    <title>Icn-Day-Time</title>
    <desc>Created with Sketch.</desc>
    <defs></defs>
    <g id="UI-Guides" stroke="none" stroke-width="1" fill-rule="evenodd">
        <g id="Iconography" transform="translate(-365.000000, -228.000000)" fill="#fff">
            <path d="M381.307426,270.654317 C382.066968,271.02901 382.854185,271.35613 383.665186,271.631786 C386.298492,273.850066 388.472903,278 390,278 C391.560761,278 393.703082,273.850019 396.334912,271.631748 C397.145903,271.35609 397.933109,271.02897 398.692642,270.654277 C402.123576,270.35987 406.597573,271.757766 407.67767,270.67767 C408.781575,269.573764 407.360942,265.122452 407.654318,261.692559 C408.028994,260.933052 408.3561,260.145873 408.631748,259.334912 C410.850019,256.703082 415,254.560761 415,253 C415,251.472903 410.850066,249.298492 408.631786,246.665186 C408.35613,245.854185 408.02901,245.066968 407.654317,244.307426 C407.360946,240.877535 408.781573,236.426234 407.67767,235.32233 C406.597576,234.242237 402.123603,235.640121 398.692673,235.345725 C397.935299,234.972097 397.150409,234.64577 396.341859,234.370602 C393.697732,232.159244 391.566423,228 390,228 C388.472908,228 386.298506,232.149908 383.66521,234.368194 C382.85419,234.643855 382.066955,234.970983 381.307395,235.345686 C377.877508,235.639046 373.426231,234.21843 372.32233,235.32233 C371.242239,236.402422 372.640117,240.876384 372.345727,244.307312 C371.971007,245.066898 371.643865,245.854161 371.368194,246.66521 C369.149908,249.298506 365,251.472908 365,253 C365,254.560756 369.149955,256.703068 371.368231,259.334888 C371.643895,260.145897 371.971023,260.933123 372.345725,261.692673 C372.640121,265.123603 371.242237,269.597576 372.32233,270.67767 C373.426234,271.781573 377.877535,270.360946 381.307426,270.654317 Z M389.999994,270.706516 C399.779036,270.706516 407.706516,262.779036 407.706516,252.999994 C407.706516,243.220952 399.779036,235.293472 389.999994,235.293472 C380.220952,235.293472 372.293472,243.220952 372.293472,252.999994 C372.293472,262.779036 380.220952,270.706516 389.999994,270.706516 Z" id="Icn-Day-Time"></path>
        </g>
    </g>
</svg>