<?xml version="1.0" encoding="UTF-8"?>
<svg width="47px" height="50px" viewBox="0 0 47 50" version="1.1" xmlns="http://www.w3.org/2000/svg" xmlns:xlink="http://www.w3.org/1999/xlink">
    <!-- Generator: Sketch 41.2 (35397) - http://www.bohemiancoding.com/sketch -->
    <title>Icn-Vaccuum-Cleaner</title>
    <desc>Created with Sketch.</desc>
    <defs></defs>
    <g id="UI-Guides" stroke="none" stroke-width="1" fill="none" fill-rule="evenodd">
        <g id="Iconography" transform="translate(-487.000000, -434.000000)">
            <path d="M516.45007,441.020697 L516.45494,441.023178 L509.122898,455.41312 C511.306076,452.712457 514.836487,450.32602 520.105993,450.32602 C521.238876,450.32602 522.291674,450.434795 523.268182,450.632262 C525.456203,449.743288 526.407449,449.235519 527.358696,448.285525 C527.358696,448.285525 528.891304,446.244735 528.891304,444.203946 C528.891304,440.122368 526.068801,437.571381 523.06846,437.571381 C520.116441,437.571381 518.13258,438.559173 516.45007,441.020697 Z M513.70828,439.623685 L513.703917,439.621462 L493.223966,479.81563 L489.318291,480.51969 C488.04476,480.749264 487,481.990191 487,483.288629 L487,483.998572 L494.894183,483.998572 C494.409577,483.457162 494.114962,482.742547 494.114962,481.959211 C494.114962,480.27639 495.474633,478.91072 497.156695,478.898115 L506.405089,460.747121 C506.274338,461.290603 506.212101,461.763704 506.212101,462.133235 L506.212101,479.973764 C506.212101,481.637422 507.555832,482.973944 509.213409,482.973944 L510.341893,482.973944 C510.341893,482.973944 510.320786,483.999236 511.359013,483.999236 C512.39724,483.999236 512.39724,482.973944 512.39724,482.973944 L527.850038,482.973944 C527.850038,482.973944 527.767874,483.987404 528.853213,483.999236 C529.938553,484.011067 529.915939,482.973944 529.915939,482.973944 L530.999639,482.973944 C532.662648,482.973944 533.998294,481.629667 533.996332,479.971417 C533.996332,479.971417 533.975879,465.098849 533.999884,462.133235 C534.016907,460.030267 532.159246,454.972577 527.435085,452.208124 C528.863382,451.316276 528.898687,451.17049 529.913043,450.326314 C529.913043,450.326314 532.56954,447.775327 532.56954,444.203946 C532.56954,439.714185 529.069142,434 523.06846,434 C516.58946,434 514.05073,438.894129 513.70828,439.623685 Z M520.015684,453.387046 C511.761971,453.438925 508.785055,460.596857 508.785055,462.871115 L508.785055,473.782368 L514.560689,473.784328 L514.815983,473.51103 C515.189045,473.11166 515.938783,472.784171 516.486265,472.784171 L523.766666,472.784171 C524.311197,472.784171 525.082828,473.091957 525.483559,473.471631 L525.819403,473.789827 L531.420808,473.791715 C531.420808,473.791715 531.407392,465.253297 531.426952,462.871115 C531.443354,460.873475 529.323588,455.556695 523.731169,453.892235 C523.149522,454.145527 522.76454,454.65016 522.25,456.448682 C521.947279,457.506811 521.828233,458.448352 521.783465,459.104505 C522.331791,459.572263 522.679004,460.265245 522.679004,461.03862 C522.679004,462.447288 521.527054,463.589239 520.106051,463.589239 C518.685047,463.589239 517.533097,462.447288 517.533097,461.03862 C517.533097,460.227172 517.915338,459.504227 518.511062,459.037077 C518.648427,458.143102 518.880093,456.851351 519.184783,455.938484 C519.439188,455.176273 519.566907,454.282085 520.015684,453.387046 Z M513.416371,475.832211 L526.79573,475.832211 L526.306697,477.920526 C526.048981,479.02105 524.920971,479.913201 523.789809,479.913201 L516.422292,479.913201 C515.289969,479.913201 514.164674,479.027687 513.905404,477.920526 L513.416371,475.832211 Z M497.18018,484 C498.308762,484 499.223658,483.086308 499.223658,481.959211 C499.223658,480.832114 498.308762,479.918422 497.18018,479.918422 C496.051598,479.918422 495.136701,480.832114 495.136701,481.959211 C495.136701,483.086308 496.051598,484 497.18018,484 Z" id="Icn-Vaccuum-Cleaner"></path>
        </g>
    </g>
</svg>