<?xml version="1.0" encoding="UTF-8"?>
<svg width="50px" height="47px" viewBox="0 0 50 47" version="1.1" xmlns="http://www.w3.org/2000/svg" xmlns:xlink="http://www.w3.org/1999/xlink">
    <!-- Generator: Sketch 41.2 (35397) - http://www.bohemiancoding.com/sketch -->
    <title>Icn-Home</title>
    <desc>Created with Sketch.</desc>
    <defs>
        <path d="M168.314843,253.221734 L168.314843,274.237355 C168.314843,274.581118 168.033952,274.860995 167.689175,274.860995 L161.71643,274.860995 L161.71643,257.889881 C161.71643,257.330126 161.26315,256.875832 160.702381,256.875832 L149.438332,256.875832 C148.877563,256.875832 148.424283,257.330126 148.424283,257.889881 L148.424283,274.860995 L132.309026,274.860995 C131.965263,274.860995 131.685386,274.581118 131.685386,274.237355 L131.685386,253.221734 C131.685386,253.221734 130.942993,253.216416 129.997681,253.221734 C129.052368,253.227051 128.849976,252.584595 128.981323,252.036499 C129.112671,251.488403 130.269205,250.74591 130.596743,250.469074 L148.958687,235.380479 C149.540751,234.889679 150.460492,234.889679 151.0385,235.380479 L169.403486,250.469074 C169.731024,250.74591 170.930791,251.607557 170.966283,252.036499 C171.001775,252.464427 170.966283,253.221734 170.005371,253.221734 C169.044459,253.221734 168.314843,253.221734 168.314843,253.221734 Z M152.348651,230.832027 C151.037486,229.722658 148.963757,229.722658 147.648536,230.832027 L126.286592,248.920622 C125.544309,249.547304 125.093057,250.42547 125.012947,251.393887 C124.931823,252.362303 125.23401,253.302326 125.860692,254.043595 C126.777392,255.127613 128.549169,255.1844 129.657289,255.183385 L129.657289,274.237355 C129.657289,275.699613 130.846768,276.889092 132.309026,276.889092 L167.689175,276.889092 C169.152447,276.889092 170.34294,275.699613 170.34294,274.237355 L170.34294,255.1844 C171.646227,255.1844 173.220809,255.125585 174.138523,254.043595 C174.767233,253.302326 175.067391,252.361289 174.987282,251.393887 C174.907172,250.42547 174.454906,249.547304 173.713637,248.920622 L152.348651,230.832027 Z M150.35121,258.90038 L159.680456,258.90038 L159.680456,274.860995 L150.35121,274.860995 L150.35121,258.90038 Z M142.879702,257.379307 L137.168581,257.379307 C136.607812,257.379307 136.154533,257.833601 136.154533,258.393356 L136.154533,264.088252 C136.154533,264.648006 136.607812,265.1023 137.168581,265.1023 L142.879702,265.1023 C143.440471,265.1023 143.89375,264.648006 143.89375,264.088252 L143.89375,258.393356 C143.89375,257.833601 143.440471,257.379307 142.879702,257.379307 L142.879702,257.379307 Z" id="path-1"></path>
        <!--<filter x="-50%" y="-50%" width="200%" height="200%" filterUnits="objectBoundingBox" id="filter-2">
            <feGaussianBlur stdDeviation="1.5" in="SourceAlpha" result="shadowBlurInner1"></feGaussianBlur>
            <feOffset dx="0" dy="1" in="shadowBlurInner1" result="shadowOffsetInner1"></feOffset>
            <feComposite in="shadowOffsetInner1" in2="SourceAlpha" operator="arithmetic" k2="-1" k3="1" result="shadowInnerInner1"></feComposite>
            <feColorMatrix values="0 0 0 0 0   0 0 0 0 0   0 0 0 0 0  0 0 0 0.5 0" type="matrix" in="shadowInnerInner1"></feColorMatrix>
        </filter>-->
    </defs>
    <g id="UI-Guides" stroke="none" stroke-width="1" fill-rule="evenodd">
        <g id="Iconography" transform="translate(-125.000000, -230.000000)">
            <g id="Icn-Home">
                <use  fill-rule="evenodd" xlink:href="#path-1"></use>
                <use  fill-opacity="1" filter="url(#filter-2)" xlink:href="#path-1"></use>
            </g>
        </g>
    </g>
</svg>